<svg xmlns="http://www.w3.org/2000/svg" width="32" height="32" viewBox="0 0 172 172"><g fill="none" stroke-miterlimit="10" font-family="none" font-weight="none" font-size="none" text-anchor="none" style="mix-blend-mode:normal"><path d="M0 172V0h172v172z"/><path d="M72.24 10.32c-32.263 0-58.48 26.217-58.48 58.48s26.217 58.48 58.48 58.48c12.766 0 24.564-4.112 34.185-11.072l45.258 45.15 9.675-9.676-44.72-44.827c8.788-10.24 14.082-23.53 14.082-38.055 0-32.263-26.217-58.48-58.48-58.48zm0 6.88c28.541 0 51.6 23.059 51.6 51.6s-23.059 51.6-51.6 51.6-51.6-23.059-51.6-51.6 23.059-51.6 51.6-51.6z" fill="#666"/></g></svg>