<svg xmlns="http://www.w3.org/2000/svg" width="24" height="24" viewBox="0 0 172 172"><g fill="none" stroke-miterlimit="10" font-family="none" font-weight="none" font-size="none" text-anchor="none" style="mix-blend-mode:normal"><path d="M0 172V0h172v172z"/><path d="M0 0v14.333h23.068L51.734 129h96.974l1.568-5.151 14.781-49.719 5.151-16.797H48.6L34.266 0zm52.182 71.667h98.766l-12.99 43H62.932zm23.068 64.5c-9.882 0-17.917 8.034-17.917 17.916 0 9.883 8.035 17.917 17.917 17.917 9.882 0 17.917-8.034 17.917-17.917 0-9.882-8.035-17.916-17.917-17.916zm50.167 0c-9.882 0-17.917 8.034-17.917 17.916 0 9.883 8.035 17.917 17.917 17.917 9.882 0 17.916-8.034 17.916-17.917 0-9.882-8.034-17.916-17.916-17.916z" fill="#fff"/></g></svg>