<svg width="22" height="27" fill="none" xmlns="http://www.w3.org/2000/svg"><path d="M21.429 22.206c0 1.217-.352 2.26-1.055 3.131-.692.87-1.53 1.306-2.511 1.306H3.566c-.982 0-1.825-.435-2.528-1.306C.346 24.467 0 23.423 0 22.207c0-.95.045-1.842.134-2.68.1-.847.279-1.696.536-2.544.256-.86.58-1.59.97-2.193a4.68 4.68 0 011.574-1.49c.659-.39 1.412-.586 2.26-.586 1.462 1.429 3.209 2.143 5.24 2.143s3.778-.714 5.24-2.143c.848 0 1.596.196 2.244.586.658.38 1.183.876 1.573 1.49.402.603.731 1.334.988 2.193.257.848.43 1.697.519 2.545.1.837.15 1.73.15 2.678zM15.25 2.82c1.261 1.25 1.892 2.763 1.892 4.537 0 1.775-.63 3.293-1.892 4.554-1.25 1.25-2.762 1.875-4.537 1.875-1.774 0-3.292-.625-4.553-1.875-1.25-1.261-1.875-2.78-1.875-4.554 0-1.774.625-3.287 1.875-4.537C7.42 1.56 8.94.93 10.714.93c1.775 0 3.287.63 4.537 1.891z" fill="#fff"/></svg>